<?xml version="1.0" encoding="UTF-8"?><svg id="Layer_2" xmlns="http://www.w3.org/2000/svg" xmlns:xlink="http://www.w3.org/1999/xlink" viewBox="0 0 1920 1080"><defs><style>.cls-1{font-size:238px;opacity:.08;}.cls-1,.cls-2{font-family:Arbotek-Ultra, Arbotek;}.cls-3{fill:#ffccbc;}.cls-4{fill:#636363;}.cls-2{font-size:165px;}.cls-2,.cls-5{fill:#fff;}.cls-6{letter-spacing:0em;}.cls-7{letter-spacing:0em;}.cls-8{letter-spacing:0em;}.cls-5{font-family:JosefinSans-Light, 'Josefin Sans';font-size:50px;font-weight:300;}.cls-9{letter-spacing:-.02em;}.cls-10{letter-spacing:-.02em;}.cls-11{letter-spacing:-.02em;}.cls-12{letter-spacing:0em;}.cls-13{letter-spacing:0em;}.cls-14{letter-spacing:-.01em;}.cls-15{letter-spacing:0em;}</style></defs><g id="Layer_4"><g><rect class="cls-4" width="1920" height="1080"/><circle class="cls-3" cx="1381" cy="551" r="323"/><text class="cls-1" transform="translate(.16 593.88)"><tspan x="0" y="0">Shopping</tspan></text><text class="cls-2" transform="translate(240.92 646.21)"><tspan class="cls-9" x="0" y="0">R</tspan><tspan x="101.14" y="0">e:m</tspan><tspan class="cls-15" x="381.64" y="0">o</tspan><tspan class="cls-12" x="472.39" y="0">t</tspan><tspan x="537.56" y="0">e</tspan></text><text class="cls-5" transform="translate(240.87 728.2)"><tspan x="0" y="0">Do all </tspan><tspan class="cls-7" x="143.9" y="0">y</tspan><tspan x="166.3" y="0">our shopping f</tspan><tspan class="cls-11" x="472.89" y="0">r</tspan><tspan x="489.19" y="0">om the </tspan><tspan x="0" y="60">com</tspan><tspan class="cls-14" x="86.95" y="60">f</tspan><tspan x="102.4" y="60">ort of </tspan><tspan class="cls-7" x="234.55" y="60">y</tspan><tspan x="256.95" y="60">our home, and ha</tspan><tspan class="cls-13" x="631.99" y="60">v</tspan><tspan x="654.44" y="60">e </tspan><tspan x="0" y="120">it deli</tspan><tspan class="cls-13" x="117.8" y="120">v</tspan><tspan x="140.25" y="120">e</tspan><tspan class="cls-10" x="164.6" y="120">r</tspan><tspan x="180.9" y="120">ed to </tspan><tspan class="cls-6" x="306.25" y="120">y</tspan><tspan class="cls-8" x="328.65" y="120">our doorstep f</tspan><tspan class="cls-10" x="628.24" y="120">r</tspan><tspan x="644.54" y="120">ee </tspan><tspan x="0" y="180">of cha</tspan><tspan class="cls-11" x="132.7" y="180">r</tspan><tspan class="cls-8" x="149" y="180">ge.</tspan></text><image width="3000" height="2000" transform="translate(1124 322) scale(.2)" xlink:href="../../../../../../Downloads/image-from-rawpixel-id-2307405-original.png"/></g></g></svg>